<?xml version="1.0" encoding="UTF-8" standalone="no"?>
<!-- Created with Inkscape (http://www.inkscape.org/) -->

<svg
   width="52.800224mm"
   height="23.05616mm"
   viewBox="0 0 52.800224 23.05616"
   version="1.1"
   id="svg1"
   inkscape:version="1.3.2 (091e20e, 2023-11-25, custom)"
   sodipodi:docname="code comands logo.svg"
   xmlns:inkscape="http://www.inkscape.org/namespaces/inkscape"
   xmlns:sodipodi="http://sodipodi.sourceforge.net/DTD/sodipodi-0.dtd"
   xmlns="http://www.w3.org/2000/svg"
   xmlns:svg="http://www.w3.org/2000/svg">
  <sodipodi:namedview
     id="namedview1"
     pagecolor="#181818"
     bordercolor="#000000"
     borderopacity="0.25"
     inkscape:showpageshadow="2"
     inkscape:pageopacity="0.0"
     inkscape:pagecheckerboard="0"
     inkscape:deskcolor="#d1d1d1"
     inkscape:document-units="mm"
     showguides="false"
     inkscape:zoom="2.768771"
     inkscape:cx="51.647463"
     inkscape:cy="57.606786"
     inkscape:window-width="1920"
     inkscape:window-height="991"
     inkscape:window-x="-9"
     inkscape:window-y="-9"
     inkscape:window-maximized="1"
     inkscape:current-layer="layer1" />
  <defs
     id="defs1" />
  <g
     inkscape:label="Layer 1"
     inkscape:groupmode="layer"
     id="layer1"
     transform="translate(-24.025529,-101.93072)">
    <g
       id="text1"
       style="font-size:14.1111px;stroke:#000dff;stroke-width:0.264583"
       aria-label="CODE&#10;COMMANDS">
      <path
         style="font-weight:bold;font-family:'Barlow Condensed';-inkscape-font-specification:'Barlow Condensed,  Bold';text-align:center;text-anchor:middle;fill:#000dff"
         d="m 40.787777,112.16656 q -1.142999,0 -1.848554,-0.69145 -0.691444,-0.70555 -0.691444,-1.86266 v -5.00944 q 0,-1.15711 0.691444,-1.84856 0.705555,-0.69144 1.848554,-0.69144 1.157111,0 1.848555,0.69144 0.705555,0.69145 0.705555,1.84856 v 0.22577 q 0,0.14111 -0.141111,0.14111 l -1.072444,0.0564 q -0.141111,0 -0.141111,-0.14111 v -0.36689 q 0,-0.57856 -0.338666,-0.93133 -0.324556,-0.35278 -0.860778,-0.35278 -0.536221,0 -0.860777,0.35278 -0.324555,0.35277 -0.324555,0.93133 v 5.19288 q 0,0.57856 0.324555,0.93134 0.324556,0.35277 0.860777,0.35277 0.536222,0 0.860778,-0.35277 0.338666,-0.35278 0.338666,-0.93134 v -0.36688 q 0,-0.14112 0.141111,-0.14112 l 1.072444,0.0564 q 0.141111,0 0.141111,0.14111 v 0.21167 q 0,1.15711 -0.705555,1.86266 -0.691444,0.69145 -1.848555,0.69145 z m 6.406435,0 q -1.15711,0 -1.862665,-0.70556 -0.705555,-0.70555 -0.705555,-1.87678 v -4.92477 q 0,-1.17122 0.705555,-1.87678 0.705555,-0.71966 1.862665,-0.71966 1.171221,0 1.876776,0.71966 0.719666,0.70556 0.719666,1.87678 v 4.92477 q 0,1.17123 -0.719666,1.87678 -0.705555,0.70556 -1.876776,0.70556 z m 0,-1.17123 q 0.564444,0 0.90311,-0.36688 0.338667,-0.381 0.338667,-0.98778 v -5.05178 q 0,-0.60677 -0.338667,-0.97366 -0.338666,-0.381 -0.90311,-0.381 -0.550333,0 -0.888999,0.381 -0.324556,0.36689 -0.324556,0.97366 v 5.05178 q 0,0.60678 0.324556,0.98778 0.338666,0.36688 0.888999,0.36688 z m 4.289773,1.05834 q -0.141111,0 -0.141111,-0.14111 v -9.59555 q 0,-0.14111 0.141111,-0.14111 h 2.31422 q 1.171222,0 1.862666,0.71966 0.691443,0.71967 0.691443,1.94733 v 4.54378 q 0,1.22766 -0.691443,1.94733 -0.691444,0.71967 -1.862666,0.71967 z M 52.69754,110.826 q 0,0.0565 0.05644,0.0565 l 1.03011,-0.0141 q 0.536222,0 0.860777,-0.40922 0.324556,-0.42333 0.338667,-1.143 v -4.40266 q 0,-0.71967 -0.324556,-1.143 -0.324555,-0.42333 -0.874888,-0.42333 h -1.03011 q -0.05644,0 -0.05644,0.0564 z m 9.905983,-7.61999 q 0,0.14111 -0.141111,0.14111 h -3.174998 q -0.05644,0 -0.05644,0.0564 v 3.06211 q 0,0.0564 0.05644,0.0564 h 1.947332 q 0.141111,0 0.141111,0.14111 v 0.889 q 0,0.14111 -0.141111,0.14111 h -1.947332 q -0.05644,0 -0.05644,0.0564 v 3.07622 q 0,0.0565 0.05644,0.0565 h 3.174998 q 0.141111,0 0.141111,0.14111 v 0.889 q 0,0.14111 -0.141111,0.14111 h -4.444997 q -0.141111,0 -0.141111,-0.14111 v -9.59555 q 0,-0.14111 0.141111,-0.14111 h 4.444997 q 0.141111,0 0.141111,0.14111 z"
         id="path2" />
      <path
         style="font-weight:bold;font-family:'Barlow Condensed';-inkscape-font-specification:'Barlow Condensed,  Bold';text-align:center;text-anchor:middle;fill:#ffffff;stroke:#ffffff"
         d="m 26.697819,124.85458 q -1.142999,0 -1.848554,-0.69144 -0.691444,-0.70556 -0.691444,-1.86267 v -5.00944 q 0,-1.15711 0.691444,-1.84855 0.705555,-0.69144 1.848554,-0.69144 1.15711,0 1.848554,0.69144 0.705555,0.69144 0.705555,1.84855 v 0.22578 q 0,0.14111 -0.141111,0.14111 l -1.072444,0.0564 q -0.141111,0 -0.141111,-0.14111 v -0.36689 q 0,-0.57856 -0.338666,-0.93134 -0.324555,-0.35277 -0.860777,-0.35277 -0.536222,0 -0.860777,0.35277 -0.324556,0.35278 -0.324556,0.93134 v 5.19288 q 0,0.57856 0.324556,0.93134 0.324555,0.35277 0.860777,0.35277 0.536222,0 0.860777,-0.35277 0.338666,-0.35278 0.338666,-0.93134 v -0.36689 q 0,-0.14111 0.141111,-0.14111 l 1.072444,0.0564 q 0.141111,0 0.141111,0.14111 v 0.21166 q 0,1.15711 -0.705555,1.86267 -0.691444,0.69144 -1.848554,0.69144 z m 6.406434,0 q -1.15711,0 -1.862665,-0.70555 -0.705555,-0.70556 -0.705555,-1.87678 v -4.92477 q 0,-1.17122 0.705555,-1.87678 0.705555,-0.71966 1.862665,-0.71966 1.171222,0 1.876777,0.71966 0.719666,0.70556 0.719666,1.87678 v 4.92477 q 0,1.17122 -0.719666,1.87678 -0.705555,0.70555 -1.876777,0.70555 z m 0,-1.17122 q 0.564444,0 0.903111,-0.36689 0.338666,-0.381 0.338666,-0.98777 v -5.05178 q 0,-0.60677 -0.338666,-0.97366 -0.338667,-0.381 -0.903111,-0.381 -0.550332,0 -0.888999,0.381 -0.324555,0.36689 -0.324555,0.97366 v 5.05178 q 0,0.60677 0.324555,0.98777 0.338667,0.36689 0.888999,0.36689 z m 8.537214,-8.72066 q 0.05645,-0.0988 0.169334,-0.0988 h 1.072443 q 0.141111,0 0.141111,0.14112 v 9.59554 q 0,0.14112 -0.141111,0.14112 h -1.072443 q -0.141111,0 -0.141111,-0.14112 v -6.9991 q 0,-0.0423 -0.02822,-0.0423 -0.01411,0 -0.04233,0.0282 l -1.354665,2.52588 q -0.04233,0.0988 -0.127,0.0988 -0.08467,0 -0.127,-0.0988 l -1.340555,-2.51177 q -0.02822,-0.0282 -0.05644,-0.0282 -0.01411,0 -0.01411,0.0423 v 6.98499 q 0,0.14112 -0.141111,0.14112 h -1.072444 q -0.141111,0 -0.141111,-0.14112 v -9.59554 q 0,-0.14112 0.141111,-0.14112 h 1.072444 q 0.09878,0 0.169333,0.0988 l 1.481665,2.65289 q 0.01411,0.0141 0.04233,0.0141 0.02822,0 0.04233,-0.0141 z m 7.478894,0 q 0.05644,-0.0988 0.169333,-0.0988 h 1.072444 q 0.141111,0 0.141111,0.14112 v 9.59554 q 0,0.14112 -0.141111,0.14112 h -1.072444 q -0.141111,0 -0.141111,-0.14112 v -6.9991 q 0,-0.0423 -0.02822,-0.0423 -0.01411,0 -0.04233,0.0282 l -1.354665,2.52588 q -0.04233,0.0988 -0.127,0.0988 -0.08467,0 -0.127,-0.0988 l -1.340555,-2.51177 q -0.02822,-0.0282 -0.05644,-0.0282 -0.01411,0 -0.01411,0.0423 v 6.98499 q 0,0.14112 -0.141111,0.14112 h -1.072444 q -0.141111,0 -0.141111,-0.14112 v -9.59554 q 0,-0.14112 0.141111,-0.14112 h 1.072444 q 0.09878,0 0.169333,0.0988 l 1.481666,2.65289 q 0.01411,0.0141 0.04233,0.0141 0.02822,0 0.04233,-0.0141 z m 6.95678,9.779 q -0.127,0 -0.155222,-0.127 l -0.310444,-1.62278 q 0,-0.0282 -0.02822,-0.0423 -0.01411,-0.0141 -0.04233,-0.0141 h -2.30011 q -0.02822,0 -0.05644,0.0141 -0.01411,0.0141 -0.01411,0.0423 l -0.296333,1.62278 q -0.01411,0.127 -0.155222,0.127 h -1.072444 q -0.07056,0 -0.112889,-0.0423 -0.02822,-0.0423 -0.01411,-0.11289 l 2.102554,-9.59555 q 0.02822,-0.127 0.155222,-0.127 h 1.255888 q 0.141111,0 0.155222,0.127 l 2.116665,9.59555 v 0.0282 q 0,0.127 -0.127,0.127 z m -2.666998,-2.93511 q 0,0.0564 0.04233,0.0564 h 1.876776 q 0.04233,0 0.04233,-0.0564 l -0.959554,-5.00944 q -0.01411,-0.0282 -0.02822,-0.0282 -0.01411,0 -0.02822,0.0282 z m 8.932338,-6.80155 q 0,-0.14112 0.141111,-0.14112 h 1.058332 q 0.141111,0 0.141111,0.14112 v 9.59554 q 0,0.14112 -0.141111,0.14112 H 62.32837 q -0.112889,0 -0.155222,-0.11289 l -2.398887,-6.44878 q -0.01411,-0.0282 -0.04233,-0.0141 -0.02822,0 -0.02822,0.0282 l 0.01411,6.40644 q 0,0.14112 -0.141111,0.14112 h -1.072444 q -0.141111,0 -0.141111,-0.14112 v -9.59554 q 0,-0.14112 0.141111,-0.14112 h 1.199444 q 0.112889,0 0.155222,0.11289 l 2.412998,6.44878 q 0.01411,0.0423 0.04233,0.0423 0.02822,-0.0141 0.02822,-0.0564 z m 3.231437,9.73666 q -0.141111,0 -0.141111,-0.14112 v -9.59554 q 0,-0.14112 0.141111,-0.14112 h 2.31422 q 1.171222,0 1.862666,0.71967 0.691443,0.71967 0.691443,1.94733 v 4.54378 q 0,1.22766 -0.691443,1.94733 -0.691444,0.71967 -1.862666,0.71967 z m 1.213554,-1.22767 q 0,0.0564 0.05645,0.0564 l 1.03011,-0.0141 q 0.536222,0 0.860777,-0.40922 0.324556,-0.42333 0.338667,-1.143 v -4.40266 q 0,-0.71967 -0.324556,-1.143 -0.324555,-0.42333 -0.874888,-0.42333 h -1.03011 q -0.05645,0 -0.05645,0.0564 z m 7.408325,1.34055 q -1.114777,0 -1.806221,-0.69144 -0.677333,-0.70556 -0.677333,-1.83444 v -0.36689 q 0,-0.14111 0.141111,-0.14111 h 1.044222 q 0.141111,0 0.141111,0.14111 v 0.29633 q 0,0.64911 0.324555,1.04422 0.324556,0.381 0.832555,0.381 0.508,0 0.832555,-0.36689 0.338666,-0.381 0.338666,-0.98777 0,-0.40922 -0.183444,-0.71967 -0.169333,-0.31044 -0.465666,-0.55033 -0.282222,-0.254 -0.931333,-0.73378 -0.719666,-0.53622 -1.128888,-0.91722 -0.409222,-0.381 -0.691444,-0.91722 -0.282222,-0.53622 -0.282222,-1.25589 0,-1.143 0.677333,-1.80622 0.677333,-0.67733 1.763888,-0.67733 1.128888,0 1.80622,0.71966 0.691444,0.71967 0.691444,1.89089 v 0.35278 q 0,0.14111 -0.141111,0.14111 h -1.044221 q -0.141111,0 -0.141111,-0.14111 v -0.381 q 0,-0.635 -0.324555,-1.016 -0.324556,-0.39511 -0.846666,-0.39511 -0.493889,0 -0.804333,0.35277 -0.310444,0.33867 -0.310444,0.95956 0,0.56444 0.310444,0.95955 0.310444,0.381 1.199443,1.03011 0.846666,0.635 1.269999,1.03012 0.437445,0.39511 0.663222,0.87488 0.239889,0.46567 0.239889,1.11478 0,1.18533 -0.691444,1.905 -0.691444,0.70555 -1.806221,0.70555 z"
         id="path3" />
    </g>
  </g>
</svg>
